<?xml version="1.0" encoding="UTF-8" standalone="no"?>
<!-- Created with Inkscape (http://www.inkscape.org/) -->

<svg
   version="1.1"
   id="svg824"
   width="334"
   height="448.97903"
   viewBox="0 0 334 448.97903"
   sodipodi:docname="2.svg"
   inkscape:version="1.1 (c68e22c387, 2021-05-23)"
   xmlns:inkscape="http://www.inkscape.org/namespaces/inkscape"
   xmlns:sodipodi="http://sodipodi.sourceforge.net/DTD/sodipodi-0.dtd"
   xmlns="http://www.w3.org/2000/svg"
   xmlns:svg="http://www.w3.org/2000/svg">
  <defs
     id="defs828" />
  <sodipodi:namedview
     id="namedview826"
     pagecolor="#ffffff"
     bordercolor="#666666"
     borderopacity="1.0"
     inkscape:pageshadow="2"
     inkscape:pageopacity="0.0"
     inkscape:pagecheckerboard="0"
     showgrid="false"
     inkscape:zoom="1.5292969"
     inkscape:cx="162.16603"
     inkscape:cy="234.42146"
     inkscape:window-width="1920"
     inkscape:window-height="1001"
     inkscape:window-x="-9"
     inkscape:window-y="-9"
     inkscape:window-maximized="1"
     inkscape:current-layer="g830" />
  <g
     inkscape:groupmode="layer"
     inkscape:label="Image"
     id="g830"
     transform="translate(-93.538955,-21.499362)">
    <path
       style="fill:#ff0000"
       d="m 137.78896,403.64142 c -24.3375,-36.7488 -44.250005,-67.50291 -44.250005,-68.34247 0,-0.90778 2.53315,-2.65884 6.25,-4.32035 3.437505,-1.53663 33.700005,-15.38274 67.250005,-30.76912 33.55,-15.38638 63.37644,-29.04107 66.28097,-30.34376 4.46736,-2.00363 5.36892,-2.13932 5.85187,-0.88078 0.314,0.81827 -1.49825,9.03125 -4.02723,18.25109 -2.52897,9.21983 -6.55147,23.8566 -8.93888,32.52616 -3.23625,11.75201 -4.0441,16.00902 -3.17491,16.73038 2.26742,1.88179 14.17779,5.84486 24.52619,8.16088 9.28616,2.07828 12.99184,2.3432 32.48199,2.32214 20.30668,-0.022 22.84666,-0.22746 33,-2.67009 32.12086,-7.72744 65.13571,-25.14795 94.33687,-49.7775 4.03528,-3.40353 7.5889,-5.93621 7.89693,-5.62817 0.81354,0.81354 -5.09765,14.59863 -10.97736,25.59953 -9.51509,17.8027 -18.91214,30.9031 -31.94864,44.53952 -27.44809,28.7112 -57.40251,44.91173 -95.3078,51.5462 -16.55973,2.8984 -43.7824,3.12842 -61.866,0.52273 -6.52629,-0.94039 -11.98942,-1.57449 -12.14027,-1.40912 -0.15085,0.16537 -4.4397,13.91317 -9.53077,30.55067 -5.09108,16.6375 -9.75295,30.24057 -10.35973,30.22903 -0.60678,-0.0115 -21.01573,-30.08816 -45.35323,-66.83697 z m 141.75,-176.96056 c 0,-0.45017 0.63518,-3.03767 1.41152,-5.75 0.77634,-2.71232 3.07495,-11.0065 5.10802,-18.4315 2.03307,-7.425 5.44789,-19.74963 7.58848,-27.38807 2.14059,-7.63844 3.89198,-14.67053 3.89198,-15.62686 0,-3.50785 -19.61725,-9.67059 -38.20958,-12.00351 -13.75028,-1.72535 -39.64804,-0.77041 -51.61626,1.90327 -32.2735,7.20984 -66.43356,24.85226 -96.32071,49.74614 -6.54153,5.44863 -9.85345,7.46993 -9.85345,6.01367 0,-0.19545 2.03336,-5.00467 4.51859,-10.68715 24.14549,-55.20877 68.628,-95.313329 120.22501,-108.392494 24.12373,-6.115051 51.66004,-7.577774 77.59609,-4.121886 7.06183,0.940964 13.02903,1.521509 13.26043,1.290101 0.23141,-0.231409 2.68989,-7.803548 5.46329,-16.826976 10.61012,-34.520651 14.03479,-44.906233 14.80794,-44.906233 0.43985,0 5.92623,7.7625 12.19196,17.25 6.26572,9.4875 26.36472,39.864755 44.66445,67.505008 18.29973,27.64026 33.27224,51.18204 33.27224,52.31507 0,1.58758 -1.6628,2.81596 -7.25,5.3559 -3.9875,1.81272 -14.225,6.47432 -22.75,10.35911 -8.525,3.88479 -28.325,12.88313 -44,19.99632 -15.675,7.11319 -38.20297,17.49732 -50.06215,23.07583 -20.99468,9.87582 -23.93785,11.02225 -23.93785,9.32426 z"
       id="path1040" />
  </g>
</svg>
