<?xml version="1.0" encoding="UTF-8" standalone="no"?>
<!-- Created with Inkscape (http://www.inkscape.org/) -->

<svg
   width="180.97498mm"
   height="131.01076mm"
   viewBox="0 0 180.97498 131.01076"
   version="1.1"
   id="svg5"
   inkscape:version="1.1 (c68e22c387, 2021-05-23)"
   sodipodi:docname="logosvg.svg"
   xmlns:inkscape="http://www.inkscape.org/namespaces/inkscape"
   xmlns:sodipodi="http://sodipodi.sourceforge.net/DTD/sodipodi-0.dtd"
   xmlns="http://www.w3.org/2000/svg"
   xmlns:svg="http://www.w3.org/2000/svg">
  <sodipodi:namedview
     id="namedview7"
     pagecolor="#ffffff"
     bordercolor="#666666"
     borderopacity="1.0"
     inkscape:pageshadow="2"
     inkscape:pageopacity="0.0"
     inkscape:pagecheckerboard="0"
     inkscape:document-units="mm"
     showgrid="false"
     inkscape:zoom="0.72337262"
     inkscape:cx="250.21683"
     inkscape:cy="307.58698"
     inkscape:window-width="1920"
     inkscape:window-height="1001"
     inkscape:window-x="-9"
     inkscape:window-y="-9"
     inkscape:window-maximized="1"
     inkscape:current-layer="layer1" />
  <defs
     id="defs2" />
  <g
     inkscape:label="Calque 1"
     inkscape:groupmode="layer"
     id="layer1"
     transform="translate(-15.576352,-62.877614)">
    <path
       d="m 16.039373,193.45132 c -0.437928,-0.48867 -0.463021,-3.59217 -0.463021,-57.26454 0,-48.558342 0.05413,-56.821992 0.37507,-57.261472 0.324385,-0.44418 0.771311,-0.52569 3.307292,-0.60314 l 2.93222,-0.0896 v -1.57612 c 0,-1.33622 0.102584,-1.6787 0.673973,-2.25009 0.669684,-0.66968 0.698333,-0.6734 4.498115,-0.58329 l 3.824139,0.0907 -1.93e-4,-4.93163 c -2.46e-4,-6.05903 19.168339,-6.46775 23.415423,-5.9352 17.783384,2.22992 34.55879,6.57063 47.823409,12.37455 l 3.63802,1.59181 3.63802,-1.59181 c 13.26464,-5.80392 30.04005,-10.14463 47.82343,-12.37455 4.24709,-0.53255 23.41567,-0.12383 23.41543,5.9352 l -2e-4,4.93163 3.82414,-0.0907 c 3.79979,-0.0901 3.82844,-0.0864 4.49812,0.58329 0.57139,0.57139 0.67397,0.91387 0.67397,2.25009 v 1.57612 l 2.93222,0.0896 c 2.53598,0.0774 2.98291,0.15896 3.30729,0.60314 0.32095,0.43948 0.37508,8.70942 0.37508,57.307432 0,55.63811 -0.0103,56.80319 -0.50721,57.25286 -0.54711,0.49513 4.54479,0.63307 -68.68134,-1.86061 l -12.17083,-0.41447 -0.98959,-0.7046 c -0.54427,-0.38754 -1.37023,-0.97565 -1.83546,-1.30693 -1.41607,-1.00834 -3.5339,-1.5131 -6.30307,-1.50226 -3.02336,0.0118 -4.98214,0.54256 -6.781584,1.83746 -0.708517,0.50984 -1.526311,1.09642 -1.817361,1.3035 -0.430037,0.30598 -7.269456,0.60326 -36.512484,1.58702 -19.790832,0.66579 -37.888332,1.28539 -40.216663,1.3769 -3.98016,0.15642 -4.261026,0.13548 -4.696355,-0.35029 z m 20.703644,-3.65612 c 6.621197,-0.21261 15.372291,-0.50823 19.446874,-0.65693 4.074583,-0.1487 12.825677,-0.44502 19.446875,-0.65849 6.621198,-0.21346 13.875417,-0.46688 16.120488,-0.56314 l 4.08194,-0.17503 1.122784,-0.85705 1.122794,-0.85705 -1.235984,-0.15778 c -0.679794,-0.0868 -4.09348,-0.39658 -7.58598,-0.68846 -25.950598,-2.16874 -44.151296,-2.08508 -59.928124,0.27544 -6.120093,0.91568 -5.949622,0.90852 -6.58163,0.27651 l -0.56212,-0.56212 V 133.44505 81.719018 h -1.5875 -1.587499 v 54.386082 54.3861 l 2.844272,-0.15472 c 1.564349,-0.0851 8.261612,-0.32867 14.88281,-0.54128 z M 193.11173,136.0909 V 81.719018 h -1.5875 -1.5875 v 51.726032 51.72605 l -0.56212,0.56212 c -0.63201,0.63201 -0.46154,0.63917 -6.58163,-0.27651 -15.77683,-2.36052 -33.97752,-2.44418 -59.92812,-0.27544 -3.4925,0.29188 -6.91302,0.60259 -7.60116,0.69048 l -1.25115,0.15979 1.11886,0.85421 c 1.3018,0.99388 0.15335,0.90772 21.2272,1.59252 6.54844,0.21279 15.59719,0.51989 20.10833,0.68245 10.45978,0.37692 34.04564,1.21708 35.52031,1.26529 l 1.12448,0.0368 z M 31.980517,181.61978 c 9.390695,-1.14943 13.172301,-1.34418 25.796874,-1.32855 8.268425,0.0102 14.048523,0.15477 18.917708,0.47307 7.652589,0.50024 18.637418,1.39981 20.108332,1.64671 1.605861,0.26955 0.582434,-0.29094 -3.396134,-1.85994 -16.746326,-6.60409 -30.250464,-8.07049 -54.514022,-5.91962 l -6.713286,0.59511 -0.49661,-0.61329 c -0.4817,-0.59488 -0.496612,-2.06125 -0.496612,-48.83583 V 77.554918 l -0.992185,-0.164 c -0.545703,-0.0902 -1.795862,-0.16531 -2.778125,-0.16691 l -1.78594,-0.003 v 52.669912 c 0,50.03825 0.02313,52.66299 0.463021,52.53129 0.254664,-0.0762 2.903802,-0.43737 5.886979,-0.80252 z m 90.355173,0.11932 c 13.68227,-1.16121 19.84234,-1.43685 32.27917,-1.44436 7.66408,-0.005 13.64042,0.11737 16.13958,0.32947 4.24705,0.36044 14.51282,1.5685 15.27969,1.79809 0.43988,0.1317 0.46302,-2.49304 0.46302,-52.53129 V 77.221098 l -1.78594,0.003 c -0.98226,0.002 -2.23242,0.0767 -2.77812,0.16691 l -0.99219,0.16399 v 48.222532 c 0,46.77458 -0.0149,48.24095 -0.49661,48.83583 l -0.49661,0.61329 -6.71329,-0.59535 c -19.90252,-1.76498 -31.89783,-1.06608 -44.89128,2.61556 -4.42932,1.25503 -13.81263,4.76155 -13.81263,5.16175 0,0.0774 0.38696,0.0746 0.8599,-0.006 0.47294,-0.0808 3.59833,-0.37926 6.94531,-0.66331 z M 104.21173,130.80254 V 80.138168 l -1.83681,-0.92501 C 91.374437,73.673388 68.718251,67.876128 51.69589,66.245408 47.528906,65.846218 37.031685,65.693678 35.453173,66.009378 l -0.826823,0.16536 v 52.658052 52.65805 l 2.182813,-0.17125 c 1.200547,-0.0942 4.385469,-0.35938 7.077603,-0.58932 6.760017,-0.5774 19.020983,-0.58298 24.077083,-0.011 12.575548,1.42272 22.932795,4.41768 34.125681,9.86798 0.94893,0.46207 1.81463,0.84903 1.92377,0.8599 0.10914,0.0109 0.19843,-22.77921 0.19843,-50.64463 z m 6.77616,49.31242 c 11.11493,-5.21573 21.01706,-8.02008 33.17593,-9.39566 5.0561,-0.57201 17.31706,-0.56643 24.07708,0.011 2.69213,0.22995 5.87706,0.49515 7.0776,0.58933 l 2.18282,0.17123 V 118.83278 66.174728 l -0.82683,-0.16536 c -1.57851,-0.3157 -12.07573,-0.16316 -16.24271,0.23603 -17.02236,1.63072 -39.67855,7.42798 -50.67907,12.96775 l -1.83681,0.92502 v 50.664372 c 0,27.86543 0.0429,50.6644 0.0954,50.6644 0.0525,0 1.39195,-0.60839 2.97656,-1.35198 z"
       style="fill:#000000;stroke-width:0.0700042"
       id="path1327" />
  </g>
</svg>
