<?xml version="1.0" encoding="UTF-8" standalone="no"?>
<!-- Created with Inkscape (http://www.inkscape.org/) -->

<svg
   width="108.73301mm"
   height="123.75027mm"
   viewBox="0 0 108.73301 123.75027"
   version="1.1"
   id="svg5"
   inkscape:version="1.1 (c68e22c387, 2021-05-23)"
   sodipodi:docname="x.svg"
   xmlns:inkscape="http://www.inkscape.org/namespaces/inkscape"
   xmlns:sodipodi="http://sodipodi.sourceforge.net/DTD/sodipodi-0.dtd"
   xmlns="http://www.w3.org/2000/svg"
   xmlns:svg="http://www.w3.org/2000/svg">
  <sodipodi:namedview
     id="namedview7"
     pagecolor="#ffffff"
     bordercolor="#666666"
     borderopacity="1.0"
     inkscape:pageshadow="2"
     inkscape:pageopacity="0.0"
     inkscape:pagecheckerboard="0"
     inkscape:document-units="mm"
     showgrid="false"
     inkscape:zoom="0.72337262"
     inkscape:cx="168.65444"
     inkscape:cy="375.32524"
     inkscape:window-width="1920"
     inkscape:window-height="1001"
     inkscape:window-x="-9"
     inkscape:window-y="-9"
     inkscape:window-maximized="1"
     inkscape:current-layer="layer1" />
  <defs
     id="defs2" />
  <g
     inkscape:label="Calque 1"
     inkscape:groupmode="layer"
     id="layer1"
     transform="translate(-48.539968,-49.279176)">
    <path
       style="fill:#000000;stroke-width:0.264583"
       d="m 155.98519,172.36459 c -0.72551,-0.57547 -1.19742,-0.72122 -2.41574,-0.74614 -2.21505,-0.0453 -1.56727,0.73542 -13.80677,-16.64054 -4.30623,-6.11339 -8.07876,-11.34083 -8.3834,-11.61653 -3.43568,-3.10924 8.79051,17.72142 13.57495,23.12866 2.03373,2.29846 2.35208,3.06044 1.59496,3.81756 -0.8865,0.8865 -1.68741,0.52423 -3.76877,-1.7047 -1.29794,-1.38997 -3.05543,-2.84931 -5.10159,-4.23613 -1.71683,-1.16361 -3.18866,-2.2243 -3.27072,-2.35709 -0.0821,-0.13279 -0.4922,-0.31676 -0.9114,-0.40883 -1.61507,-0.35473 -3.11403,-1.63738 -5.00265,-4.28075 -1.02329,-1.43221 -3.41741,-4.24653 -5.32027,-6.25405 -3.59313,-3.79076 -3.87727,-4.18499 -4.8067,-6.66913 -0.61057,-1.63189 -1.77102,-3.25794 -5.97412,-8.3711 -1.54929,-1.88475 -3.07305,-3.47858 -3.49123,-3.6518 -1.24195,-0.51443 -3.59454,-3.14676 -5.92524,-6.62981 -3.691835,-5.51715 -5.773346,-8.46667 -5.975033,-8.46667 -1.336132,0 -17.301174,20.44474 -20.795698,26.63084 -1.862873,3.29772 -2.229692,3.78606 -3.250716,4.32772 -0.632992,0.3358 -2.128853,1.68178 -3.324135,2.99107 -4.140784,4.53574 -7.531234,3.40688 -4.434337,-1.47642 0.408138,-0.64357 1.415119,-2.48593 2.237735,-4.09413 0.822613,-1.6082 1.945587,-3.44241 2.495497,-4.07602 1.139242,-1.31264 5.901803,-11.09667 5.384339,-11.06138 -0.286353,0.0195 -2.153219,2.46429 -4.536368,5.94061 -3.591896,5.23953 -8.383402,9.55451 -9.944477,8.95547 -0.380774,-0.14612 -1.321822,-1.64123 -1.134203,-1.80199 0.04711,-0.0404 0.628233,-0.31011 1.291383,-0.59942 1.465315,-0.63927 2.852393,-2.20587 4.239207,-4.78786 1.168206,-2.17499 0.84796,-2.48273 -0.598956,-0.57557 -1.107824,1.4602 -6.720449,5.82083 -7.492078,5.82083 -2.146151,0 -2.043509,-0.29877 2.504173,-7.2892 2.04259,-3.13975 3.713801,-5.82022 3.713801,-5.95659 0,-0.67207 -0.816565,0.18963 -5.218315,5.50673 -6.222047,7.51593 -9.598351,10.46626 -9.598351,8.38738 0,-0.54573 1.478267,-2.63133 5.804275,-8.18894 7.175908,-9.21887 8.561293,-11.09198 12.74073,-17.22608 4.974222,-7.3006 11.464644,-16.49578 14.073475,-19.938322 2.891661,-3.81575 2.890885,-3.82338 -1.037063,-10.219559 -16.45286,-26.791454 -17.314161,-28.647044 -14.307814,-30.82483 0.613217,-0.444212 1.109739,-0.888333 1.103384,-0.986936 -0.0063,-0.0986 -0.164079,-0.701283 -0.350496,-1.339288 -0.743228,-2.543675 0.929658,-3.427015 2.778204,-1.466985 l 0.891138,0.94488 v -0.94488 c 0,-1.056153 0.743714,-2.003214 1.573098,-2.003214 0.383323,0 0.880526,0.692499 1.947156,2.711979 0.787816,1.491589 2.655112,5.033698 4.14955,7.871354 7.046259,13.379523 12.948473,23.143804 13.597448,22.494829 0.308144,-0.308144 0.240757,-0.442926 -11.445319,-22.891704 -6.823321,-13.107498 -6.721096,-12.832291 -4.766513,-12.832291 0.748545,0 1.420058,0.704786 2.962073,3.108854 0.671224,1.046464 0.802968,1.124479 1.898928,1.124479 1.351658,0 2.512134,0.84536 3.870261,2.819329 0.791046,1.149748 0.791046,1.149748 1.585196,0.739077 1.377899,-0.712539 3.178347,0.678222 4.740087,3.661492 3.522599,6.728939 8.312382,15.284477 8.828301,15.769157 0.623313,0.585573 0.623313,0.585573 11.572253,-10.54027 13.59477,-13.814428 17.35825,-17.069288 14.57824,-12.608048 -0.35348,0.56725 -1.41112,2.038471 -2.3503,3.269382 -2.76787,3.627627 -2.17742,3.345018 2.71606,-1.299987 5.54247,-5.261044 7.29676,-4.132575 2.27912,1.466067 -0.79785,0.890226 -2.29951,2.885488 -3.33702,4.433916 -1.03752,1.548428 -5.58423,7.144366 -10.1038,12.435415 -11.79066,13.803309 -11.89658,14.115595 -1.28416,3.786124 14.80399,-14.409287 18.48251,-17.806642 22.71425,-20.978127 4.24551,-3.181809 1.66138,0.162342 -7.84731,10.155284 -1.41883,1.491086 -2.57969,2.786056 -2.57969,2.877713 0,0.232713 1.51506,-0.57401 1.72943,-0.920869 0.37194,-0.601803 2.34833,-1.836489 2.93972,-1.836489 0.34154,0 1.06782,-0.393288 1.61394,-0.873972 4.01713,-3.535784 9.68714,-7.048566 10.33797,-6.404749 0.32465,0.321146 -1.50069,2.769737 -4.01769,5.389525 -4.1805,4.351213 -5.87497,7.93655 -3.08202,6.521254 1.5274,-0.773991 1.56908,-0.708602 0.81409,1.27717 -0.52236,1.37392 -4.76196,6.165889 -11.39194,12.876188 -10.63464,10.76347 -11.44256,11.63429 -11.29996,12.17957 0.18739,0.71661 16.85475,26.788762 23.92801,37.429742 6.61021,9.94437 6.88135,10.50599 5.62216,11.64554 -0.48683,0.44058 -0.56187,0.44557 -0.85989,0.0571 -2.41422,-3.14645 -5.34828,-6.76906 -5.42242,-6.69491 -0.43212,0.43211 2.70108,5.16068 10.6194,16.02667 9.73983,13.36556 9.9773,13.73178 10.16514,15.67656 0.13935,1.44274 -0.003,1.50172 -1.24446,0.51674 z m -24.37832,-20.62507 c -3.27979,-6.19215 -8.45282,-13.66732 -9.04699,-13.07315 -0.18897,0.18897 -0.119,0.50693 0.22543,1.02443 5.33682,8.01849 10.19505,15.15757 10.31489,15.15757 0.0843,0 -0.58767,-1.39898 -1.49333,-3.10885 z m 3.96198,-13.06628 c -0.16622,-0.3106 -0.80664,-1.3524 -1.42315,-2.31511 -0.6165,-0.96271 -4.4911,-7.10819 -8.61023,-13.65663 -10.27718,-16.33833 -11.49468,-17.34243 -2.4061,-1.98438 3.90107,6.59211 9.77987,15.75642 10.95832,17.08265 1.30621,1.47001 2.02833,1.89586 1.48116,0.87347 z M 112.34693,83.322064 c 0.14579,-0.267123 0.18365,-0.56478 0.0841,-0.661458 -0.24166,-0.234749 -2.77636,2.646386 -2.59143,2.945614 0.15695,0.253947 2.07644,-1.494716 2.5073,-2.284156 z m 5.14633,-5.922446 c -0.22692,-0.226121 -1.21996,0.863168 -1.21996,1.338199 0,0.162472 0.32111,-0.02569 0.71357,-0.418169 0.39246,-0.392467 0.62034,-0.806479 0.50639,-0.92003 z"
       id="path926" />
  </g>
</svg>
